<svg xmlns="http://www.w3.org/2000/svg" viewBox="0 0 1300.91 289.03" style="max-height:45px;"><defs><style>.cls-1{fill:#0f447d;}.cls-2{fill:#368193;}</style></defs><title>Risorsa 13</title><g id="Livello_2" data-name="Livello 2"><g id="Livello_1-2" data-name="Livello 1"><path class="cls-1" d="M472.23,102.68c-3.72-16.76-21.81-23.94-38-23.68-12.51.27-26.34,4.52-33.79,14.1-3.73,4.79-5.06,10.91-4.53,17.3,1.34,19.16,22.35,21.55,42.31,23.41,25.54,3.19,57.2,9.85,64.39,39.64a67,67,0,0,1,1.33,12.24c0,35.92-35.65,56.68-69.18,56.68-28.73,0-63.59-17-67.05-50.29l-.26-5.06,27.13-.53.27,4v-1.06c1.86,17.29,22.88,26.34,40.18,26.34,19.95,0,41.77-11.18,41.77-30.33A30.07,30.07,0,0,0,476,179c-3.19-14.1-22.35-16.49-41-18.35-29-2.93-63.06-9.32-66-48.16v.26a50.38,50.38,0,0,1,10.11-35.38C391.62,61.17,414,52.66,435.52,52.66c28.73,0,58.53,14.9,63.32,49Z"/><path class="cls-1" d="M617.78,186H551c-7.18,17-16.49,39.38-22.35,54.81h-29L574.41,52.13h19.68l74.77,188.64H640.13ZM561.1,160.69h46.3L584.52,95Z"/><path class="cls-1" d="M684.58,240.77V54.26l20.75.26,90.73,131.17V54.52h26.6V240.77H801.38L711.45,110.66V240.77Z"/><path class="cls-1" d="M942.66,102.68c-3.72-16.76-21.81-23.94-38-23.68-12.51.27-26.34,4.52-33.79,14.1-3.73,4.79-5.06,10.91-4.53,17.3,1.33,19.16,22.35,21.55,42.31,23.41,25.54,3.19,57.2,9.85,64.39,39.64a67,67,0,0,1,1.33,12.24c0,35.92-35.66,56.68-69.18,56.68-28.73,0-63.59-17-67-50.29l-.27-5.06,27.14-.53.27,4v-1.06c1.86,17.29,22.88,26.34,40.18,26.34,20,0,41.77-11.18,41.77-30.33a30.07,30.07,0,0,0-.8-6.39c-3.19-14.1-22.35-16.49-41-18.35-29-2.93-63.06-9.32-66-48.16v.26a50.38,50.38,0,0,1,10.11-35.38C862.05,61.17,884.4,52.66,906,52.66c28.73,0,58.53,14.9,63.32,49Z"/><path class="cls-1" d="M1074.6,213.9h86.48v26.87H1047.46v-186h113.35V81.66H1074.6v52.42H1159v27.14H1074.6Z"/><path class="cls-1" d="M1213.38,213.9h87.53v26.87h-114.4v-186h26.87Z"/><rect class="cls-1" y="109.39" width="54.74" height="70.21"/><rect class="cls-1" x="234.24" y="109.39" width="54.74" height="70.21"/><rect class="cls-1" x="117.12" y="226.51" width="54.74" height="70.21" transform="translate(-117.12 406.11) rotate(-90)"/><rect class="cls-1" x="117.12" y="-7.74" width="54.74" height="70.21" transform="translate(117.12 171.86) rotate(-90)"/><polygon class="cls-2" points="109.39 0 54.74 54.74 54.74 109.39 109.39 109.39 109.39 0"/><polygon class="cls-2" points="288.94 109.34 234.19 54.69 179.55 54.69 179.55 109.34 288.94 109.34"/><polygon class="cls-2" points="179.6 289.04 234.24 234.29 234.24 179.65 179.6 179.65 179.6 289.04"/><polygon class="cls-2" points="0.05 179.7 54.79 234.34 109.44 234.34 109.44 179.7 0.05 179.7"/><rect class="cls-1" x="992.87" y="52.13" width="27.28" height="188.64"/></g></g></svg>